<?xml version="1.0" standalone="no"?>
<!DOCTYPE svg PUBLIC "-//W3C//DTD SVG 20010904//EN"
 "http://www.w3.org/TR/2001/REC-SVG-20010904/DTD/svg10.dtd">
<svg version="1.0" xmlns="http://www.w3.org/2000/svg"
 width="512.000000pt" height="512.000000pt" viewBox="0 0 512.000000 512.000000"
 preserveAspectRatio="xMidYMid meet">
<metadata>
Created by potrace 1.14, written by Peter Selinger 2001-2017
</metadata>
<g transform="translate(0.000000,512.000000) scale(0.100000,-0.100000)"
fill="#000000" stroke="none">
<path d="M724 5111 c-99 -24 -196 -113 -231 -213 -17 -51 -18 -146 -18 -2338
0 -2192 1 -2287 18 -2338 29 -82 85 -145 164 -184 l68 -33 1400 0 1400 0 57
28 c67 33 121 90 157 166 l26 56 3 697 3 697 272 3 273 3 75 37 c143 71 231
197 249 359 13 110 13 1638 0 1748 -18 162 -106 288 -249 359 l-75 37 -273 3
-273 3 0 311 c0 350 -5 387 -66 471 -19 26 -53 61 -76 77 -87 63 -8 60 -1507
59 -751 -1 -1380 -4 -1397 -8z m686 -204 c0 -126 50 -220 144 -270 41 -22 46
-22 566 -22 520 0 525 0 566 22 97 52 137 121 142 246 l4 88 332 -3 333 -3 40
-27 c75 -50 78 -62 81 -415 l3 -313 -933 0 c-539 0 -965 -5 -1008 -10 -175
-23 -319 -143 -371 -311 -18 -58 -19 -106 -19 -964 0 -871 1 -905 20 -967 23
-76 65 -141 124 -196 70 -65 145 -97 269 -117 l37 -6 0 -214 c0 -213 0 -214
25 -243 34 -40 66 -47 118 -24 23 11 165 123 315 251 l272 231 575 0 575 0 0
-452 c0 -285 -4 -467 -11 -491 -12 -45 -58 -100 -96 -116 -21 -8 -393 -11
-1404 -9 l-1376 3 -35 27 c-74 57 -68 -139 -68 2168 0 2262 -4 2094 58 2153
16 15 42 32 58 37 16 4 172 9 347 9 l317 1 0 -63z m1270 1 c0 -81 -23 -122
-77 -137 -41 -12 -897 -16 -952 -5 -17 4 -42 18 -56 32 -22 22 -25 33 -25 98
l0 74 555 0 555 0 0 -62z m1623 -874 c60 -20 126 -79 157 -140 l25 -49 3 -909
2 -909 -23 -51 c-34 -74 -70 -111 -139 -145 l-61 -31 -914 0 c-554 0 -921 -4
-932 -9 -10 -6 -132 -107 -272 -226 l-254 -215 -6 207 c-3 115 -6 209 -7 210
-16 19 -73 33 -131 33 -102 0 -167 27 -230 96 -85 93 -81 37 -81 1029 0 711 3
880 14 918 17 57 65 125 111 156 77 52 15 50 1401 51 1149 0 1296 -2 1337 -16z
m-2201 -3622 c1488 -3 1390 -5 1502 43 18 8 18 3 14 -81 -5 -104 -30 -161 -88
-197 l-35 -22 -1350 -3 c-941 -2 -1361 0 -1387 8 -48 14 -97 55 -114 97 -8 19
-14 68 -14 117 l0 85 48 -22 47 -22 1377 -3z"/>
<path d="M2165 3301 c-152 -28 -238 -173 -193 -325 17 -56 99 -138 156 -154
23 -7 81 -16 129 -19 67 -5 91 -11 110 -27 45 -38 30 -130 -24 -155 -14 -6
-85 -11 -174 -11 -146 0 -151 -1 -174 -25 -32 -31 -32 -69 0 -100 24 -25 27
-25 193 -25 164 0 170 1 223 28 179 90 182 350 5 441 -37 19 -67 26 -134 29
-48 2 -100 8 -115 14 -61 23 -73 116 -20 158 23 18 40 20 178 20 139 0 155 2
179 21 32 25 35 75 7 110 -18 23 -25 24 -163 26 -78 1 -161 -2 -183 -6z"/>
<path d="M2733 3300 c-12 -5 -26 -18 -32 -29 -7 -13 -11 -148 -11 -395 l0
-375 26 -20 c35 -28 69 -26 99 4 l25 24 0 233 0 232 88 -129 c65 -97 93 -131
111 -133 54 -8 70 6 154 136 l82 127 3 -235 c2 -224 3 -235 24 -257 29 -31 72
-30 103 2 l25 24 0 368 c0 400 0 402 -56 423 -47 18 -68 -2 -194 -194 l-122
-185 -121 184 c-94 142 -129 187 -151 195 -16 5 -29 10 -30 9 -1 0 -11 -4 -23
-9z"/>
<path d="M3799 3300 c-57 -10 -85 -24 -127 -64 -119 -111 -97 -309 43 -391 37
-22 64 -29 150 -35 57 -5 113 -14 124 -20 47 -25 56 -102 17 -147 l-24 -28
-164 -3 c-150 -3 -165 -5 -185 -24 -31 -29 -30 -78 0 -106 22 -21 33 -22 184
-22 185 0 226 10 287 68 54 52 76 104 76 182 0 77 -22 130 -71 177 -50 47
-102 65 -213 73 -91 6 -101 9 -123 34 -32 38 -32 98 2 131 24 24 28 25 180 25
l157 0 29 29 c35 36 37 61 5 98 -24 28 -24 28 -163 30 -76 1 -159 -2 -184 -7z"/>
</g>
</svg>
